<svg width="1440" height="294" viewBox="0 0 1440 294" fill="none" xmlns="http://www.w3.org/2000/svg">
<path d="M-302 -9.60489L-18 -18.5548H272.5C272.5 -18.5548 449.715 121.287 302.714 140.649C155.714 160.011 476.214 253.966 302.714 290.263C129.214 326.561 0.714279 60.0507 -88.3571 161.217C-177.429 262.382 -226.534 73.2452 -233 18.7366C-252.643 -146.865 -302 -9.60489 -302 -9.60489Z" fill="black"/>
<path d="M136 -11.8661L798.541 -11.8661H1447.43V250.243C1447.43 250.243 1549.23 117.169 1173.45 174.786C797.669 232.402 782.212 113.174 600.42 160.535C249.434 251.976 301.146 99.3811 287.143 61.4891C244.599 -53.63 136 -11.8661 136 -11.8661Z" fill="black"/>
<path d="M166 -5.65285H785.107H1447.3V246.265C1447.3 246.265 1550.15 113.28 1170.47 170.858C790.789 228.436 775.172 109.287 591.491 156.617C236.859 247.997 289.109 95.5036 274.96 57.6368C231.974 -57.4059 166 -5.65285 166 -5.65285Z" fill="url(#paint0_linear_438_324)"/>
<path d="M-298 -10.5993L-14 -19.5492L223 -8.87609L224.5 -8.80854C224.5 -8.80854 233.289 -18.1326 260.5 25.9968C265.153 33.5434 269 42.4051 274.5 55.83C279 68.7577 278 83.6743 280 95.6076C281 109.033 284.5 121.463 287.5 128.921C289.5 133.894 293.427 140.923 294.5 142.346C295.573 143.769 296.5 145.33 296.5 145.33C296.5 145.33 298.562 146.55 296.5 146.821C149.5 166.184 480.214 252.972 306.714 289.269C133.214 325.566 4.71428 59.0563 -84.3571 160.222C-173.429 261.388 -222.534 72.2508 -229 17.7422C-248.643 -147.859 -298 -10.5993 -298 -10.5993Z" fill="url(#paint1_linear_438_324)"/>
<defs>
<linearGradient id="paint0_linear_438_324" x1="813" y1="-17.2612" x2="813" y2="246.265" gradientUnits="userSpaceOnUse">
<stop stop-color="#1400FF"/>
<stop offset="1" stop-color="#1400FF" stop-opacity="0.26"/>
</linearGradient>
<linearGradient id="paint1_linear_438_324" x1="33.5198" y1="-63.9999" x2="33.5198" y2="292.693" gradientUnits="userSpaceOnUse">
<stop stop-color="#1400FF"/>
<stop offset="1" stop-color="#1400FF" stop-opacity="0.26"/>
</linearGradient>
</defs>
</svg>
